<?xml version="1.0" standalone="yes"?>
<svg xmlns="http://www.w3.org/2000/svg" width="196" height="254">
    <path style="fill:transparent; stroke:none;" d="M0 0L0 254L196 254L196 0L0 0z" />
    <path style="fill:#ffffff; stroke:none;" d="M91 159C88.2438 156.348 83.7933 153.567 82.5139 149.816C79.7702 141.77 84.3445 131.995 81.3966 124C78.3759 115.807 68.2715 111.329 63.7423 104C61.1572 99.817 61.0612 91.8711 61.0586 87.0008C61.0526 75.2837 78.5907 71.9868 71.4275 57C64.4939 42.4938 42.8638 44.5298 38.7654 60C35.8564 70.9808 45.3809 74.206 47.6821 83.0394C49.6742 90.6862 46.3345 99.3139 48.4298 106.961C50.8755 115.886 62.5988 121.4 67.3966 129C69.8996 132.965 69 138.512 69 143C59.8219 142.276 41.2868 138.066 34.4336 146.144C27.9543 153.782 36.0387 168.253 39.0617 176C49.1116 201.753 69.4774 234.071 99 239.536C113.409 242.204 129.135 242.205 140.999 232.532C166.384 211.837 158.563 170.587 128 159C129.056 154.563 128.031 149.082 130.024 145C134.126 136.597 143.548 131.889 148.243 124C150.592 120.053 148.704 115.298 150.564 111.174C153.207 105.315 159.181 103.207 159.895 96C161.656 78.234 138.031 67.3985 128.009 84.0039C124.554 89.7293 125.327 98.5573 129.109 103.907C131.456 107.227 136.119 109.39 135.793 114.015C135.235 121.94 124.065 128.269 119.482 134.015C115.284 139.278 117.425 144.285 115.157 149.96C113.19 154.88 107.672 158.396 104 162L104 89C104 77.4308 102.327 64.4342 104.148 53.0147C105.278 45.9292 113.741 42.826 114.786 35C116.143 24.8443 108.175 15.6198 98 15.2639C87.9698 14.913 79.2087 23.9648 80.1998 34C81.0194 42.2977 89.6809 45.6709 90.8519 53.0147C92.6225 64.1192 91 76.7504 91 88L91 159z" />
    <path style="fill:#fdfdfd; stroke:none;" d="M87 18L88 19L87 18z" />
    <path style="fill:#fbfbfb; stroke:none;" d="M96 26L97 27L96 26z" />
    <path style="fill:transparent; stroke:none;" d="M97.0116 26.9167C89.4507 27.5645 90.6551 39.0394 97.9884 38.338C105.412 37.6279 104.519 26.2734 97.0116 26.9167z" />
    <path style="fill:#fdfdfd; stroke:none;" d="M103 30L104 31L103 30z" />
    <path style="fill:#fbfbfb; stroke:none;" d="M99 38L100 39L99 38M113 39L114 40L113 39z" />
    <path style="fill:#010101; stroke:none;" d="M54.0432 58.8511C46.7831 60.9568 49.8375 72.2138 56.9568 70.1489C64.2169 68.0432 61.1625 56.7862 54.0432 58.8511z" />
    <path style="fill:#fdfdfd; stroke:none;" d="M59 59L60 60L59 59M60 60L61 61L60 60M49 62L50 63L49 62z" />
    <path style="fill:#fbfbfb; stroke:none;" d="M150 77L151 78L150 77M140 87L141 88L140 87z" />
    <path style="fill:#010101; stroke:none;" d="M141.109 87.7863C134.266 90.2532 138.012 100.853 144.941 98.3773C151.855 95.907 148.006 85.3 141.109 87.7863z" />
    <path style="fill:#fdfdfd; stroke:none;" d="M139 98L140 99L139 98z" />
    <path style="fill:#fbfbfb; stroke:none;" d="M51 111L52 112L51 111z" />
    <path style="fill:#fdfdfd; stroke:none;" d="M54 114L55 115L54 114z" />
    <path style="fill:#fbfbfb; stroke:none;" d="M149 115L149 118L150 118L149 115z" />
    <path style="fill:#fdfdfd; stroke:none;" d="M149 118L150 119L149 118z" />
    <path style="fill:#fbfbfb; stroke:none;" d="M127 126L128 127L127 126M125 128L126 129L125 128z" />
    <path style="fill:#fdfdfd; stroke:none;" d="M40 142L41 143L40 142M82 151L83 152L82 151z" />
    <path style="fill:#fbfbfb; stroke:none;" d="M84 153L85 154L84 153z" />
    <path style="fill:#fdfdfd; stroke:none;" d="M113 153L114 154L113 153z" />
    <path style="fill:#010101; stroke:none;" d="M46 155C48.2055 180.103 70.9463 214.224 94 224.127C107.633 229.984 125.243 231.421 136.331 219.674C149.03 206.221 144.4 188.548 131.999 177.093C129.081 174.397 123.342 168.762 119 169.113C108.019 170.002 114.351 181.417 114.775 187C115.56 197.349 105.897 205.628 96 204.902C79.3266 203.68 77.8132 185.776 86 175L67.7137 155.603L46 155z" />
    <path style="fill:#fbfbfb; stroke:none;" d="M111 155L112 156L111 155M48 164L49 165L48 164M37 171L38 172L37 171M133 178L134 179L133 178M136 181L137 182L136 181z" />
    <path style="fill:#010101; stroke:none;" d="M95.1335 182.758C88.1521 185.585 92.9102 196.005 99.8912 193.242C107.164 190.364 102.137 179.921 95.1335 182.758z" />
    <path style="fill:#fbfbfb; stroke:none;" d="M43 185L44 186L43 185M100 193L101 194L100 193M143 194L144 195L143 194M65 198L66 199L65 198M111 198L112 199L111 198M108 201L109 202L108 201M148 224L149 225L148 224M86 234L87 235L86 234z" />
    <path style="fill:#fdfdfd; stroke:none;" d="M106 240L107 241L106 240z" />
</svg>